<svg xmlns="http://www.w3.org/2000/svg" xmlns:xlink="http://www.w3.org/1999/xlink" width="500" zoomAndPan="magnify" viewBox="0 0 375 374.999991" height="500" preserveAspectRatio="xMidYMid meet" version="1.0"><defs><clipPath id="e7382b0bb3"><path d="M 63.027344 6.121094 L 312 6.121094 L 312 363 L 63.027344 363 Z M 63.027344 6.121094 " clip-rule="nonzero"/></clipPath></defs><rect x="-37.5" width="450" fill="#ffffff" y="-37.499999" height="449.999989" fill-opacity="1"/><rect x="-37.5" width="450" fill="#ffffff" y="-37.499999" height="449.999989" fill-opacity="1"/><g clip-path="url(#e7382b0bb3)"><path fill="#052c62" d="M 187.5 6.238281 C 256.246094 6.238281 311.972656 61.964844 311.972656 130.710938 C 311.972656 154.628906 305.222656 176.96875 293.527344 195.9375 C 279.5 219.171875 265.472656 242.410156 251.445312 265.652344 C 234.359375 293.421875 220.535156 315.894531 203.453125 343.667969 C 188.390625 368.152344 187.371094 368.753906 172.230469 344.144531 C 155.234375 316.511719 140.945312 293.28125 123.945312 265.652344 C 109.949219 242.671875 95.957031 219.695312 81.960938 196.71875 C 69.972656 177.585938 63.027344 154.960938 63.027344 130.710938 C 63.027344 61.964844 118.757812 6.238281 187.5 6.238281 Z M 187.5 68.644531 C 218.320312 68.644531 243.304688 93.628906 243.304688 124.445312 C 243.304688 155.261719 218.320312 180.246094 187.5 180.246094 C 156.679688 180.246094 131.699219 155.261719 131.699219 124.445312 C 131.699219 93.628906 156.683594 68.644531 187.5 68.644531 Z M 187.5 68.644531 " fill-opacity="1" fill-rule="evenodd"/></g></svg>