<svg xmlns="http://www.w3.org/2000/svg" xmlns:xlink="http://www.w3.org/1999/xlink" width="500" zoomAndPan="magnify" viewBox="0 0 375 374.999991" height="500" preserveAspectRatio="xMidYMid meet" version="1.0"><defs><clipPath id="377f45e06b"><path d="M 39 201 L 336 201 L 336 293.996094 L 39 293.996094 Z M 39 201 " clip-rule="nonzero"/></clipPath><clipPath id="684266e96a"><path d="M 21.410156 95 L 133 95 L 133 280 L 21.410156 280 Z M 21.410156 95 " clip-rule="nonzero"/></clipPath><clipPath id="3db69008b4"><path d="M 242 95 L 353.660156 95 L 353.660156 280 L 242 280 Z M 242 95 " clip-rule="nonzero"/></clipPath></defs><rect x="-37.5" width="450" fill="#ffffff" y="-37.499999" height="449.999989" fill-opacity="1"/><rect x="-37.5" width="450" fill="#ffffff" y="-37.499999" height="449.999989" fill-opacity="1"/><g clip-path="url(#377f45e06b)"><path fill="#052c62" d="M 335.257812 290.128906 L 231.007812 203.570312 C 227.960938 201.039062 223.542969 201.039062 220.496094 203.570312 L 192.410156 226.890625 C 189.582031 229.234375 185.484375 229.234375 182.660156 226.890625 L 154.574219 203.570312 C 151.527344 201.039062 147.113281 201.039062 144.0625 203.570312 L 39.8125 290.128906 C 38.378906 291.320312 39.21875 293.652344 41.085938 293.652344 L 333.984375 293.652344 C 335.847656 293.652344 336.691406 291.320312 335.257812 290.128906 " fill-opacity="1" fill-rule="nonzero"/></g><g clip-path="url(#684266e96a)"><path fill="#052c62" d="M 131.039062 184.027344 L 24.71875 95.746094 C 23.421875 94.667969 21.453125 95.59375 21.453125 97.277344 L 21.453125 277.691406 C 21.453125 279.375 23.421875 280.300781 24.71875 279.226562 L 131.039062 190.945312 C 133.207031 189.144531 133.207031 185.824219 131.039062 184.027344 " fill-opacity="1" fill-rule="nonzero"/></g><path fill="#052c62" d="M 39.816406 84.84375 L 183.546875 204.183594 C 185.859375 206.105469 189.210938 206.105469 191.523438 204.183594 L 335.257812 84.84375 C 336.691406 83.652344 335.847656 81.316406 333.984375 81.316406 L 41.085938 81.316406 C 39.21875 81.316406 38.378906 83.652344 39.816406 84.84375 " fill-opacity="1" fill-rule="nonzero"/><g clip-path="url(#3db69008b4)"><path fill="#052c62" d="M 350.351562 95.746094 L 244.03125 184.027344 C 241.867188 185.824219 241.867188 189.144531 244.03125 190.945312 L 350.351562 279.226562 C 351.648438 280.300781 353.613281 279.378906 353.613281 277.691406 L 353.613281 97.277344 C 353.613281 95.59375 351.648438 94.667969 350.351562 95.746094 " fill-opacity="1" fill-rule="nonzero"/></g></svg>