<svg xmlns="http://www.w3.org/2000/svg" xmlns:xlink="http://www.w3.org/1999/xlink" width="500" zoomAndPan="magnify" viewBox="0 0 375 374.999991" height="500" preserveAspectRatio="xMidYMid meet" version="1.0"><defs><clipPath id="0f2fd8de67"><path d="M 78.871094 5.347656 L 296.371094 5.347656 L 296.371094 369.847656 L 78.871094 369.847656 Z M 78.871094 5.347656 " clip-rule="nonzero"/></clipPath></defs><rect x="-37.5" width="450" fill="#ffffff" y="-37.499999" height="449.999989" fill-opacity="1"/><rect x="-37.5" width="450" fill="#ffffff" y="-37.499999" height="449.999989" fill-opacity="1"/><g clip-path="url(#0f2fd8de67)"><path fill="#052c62" d="M 255.570312 5.347656 L 119.445312 5.347656 C 97.113281 5.347656 78.949219 23.515625 78.949219 45.847656 L 78.949219 329.125 C 78.949219 351.453125 97.113281 369.621094 119.445312 369.621094 L 255.570312 369.621094 C 277.902344 369.621094 296.070312 351.457031 296.070312 329.125 L 296.070312 45.847656 C 296.070312 23.515625 277.902344 5.347656 255.570312 5.347656 Z M 90.742188 51.746094 L 284.273438 51.746094 L 284.273438 296.515625 L 90.742188 296.515625 Z M 119.445312 17.144531 L 255.570312 17.144531 C 269.378906 17.144531 280.933594 26.941406 283.664062 39.949219 L 91.355469 39.949219 C 94.082031 26.941406 105.640625 17.144531 119.445312 17.144531 Z M 255.570312 357.828125 L 119.445312 357.828125 C 103.621094 357.828125 90.742188 344.953125 90.742188 329.125 L 90.742188 308.308594 L 284.273438 308.308594 L 284.273438 329.125 C 284.273438 344.953125 271.398438 357.828125 255.570312 357.828125 Z M 255.570312 357.828125 " fill-opacity="1" fill-rule="nonzero"/></g><path fill="#052c62" d="M 187.507812 315.894531 C 178.125 315.894531 170.488281 323.53125 170.488281 332.914062 C 170.488281 342.300781 178.125 349.933594 187.507812 349.933594 C 196.894531 349.933594 204.527344 342.300781 204.527344 332.914062 C 204.527344 323.53125 196.894531 315.894531 187.507812 315.894531 Z M 187.507812 338.136719 C 184.628906 338.136719 182.285156 335.792969 182.285156 332.914062 C 182.285156 330.03125 184.625 327.6875 187.507812 327.6875 C 190.390625 327.6875 192.734375 330.03125 192.734375 332.914062 C 192.734375 335.792969 190.390625 338.136719 187.507812 338.136719 Z M 187.507812 338.136719 " fill-opacity="1" fill-rule="nonzero"/></svg>